<svg xmlns="http://www.w3.org/2000/svg" viewBox="0 0 144 72"><defs><style>.a{fill:#30454f;}.b{fill:#cce5e2;}.c{fill:none;stroke:#30454f;stroke-width:2.79px;}.c,.d{stroke-miterlimit:10;}.d{fill:#fff;stroke:#fff;stroke-width:0.75px;}</style></defs><path class="a" d="M65.59,27.69l-2.38-8.82L60.8,27.69q-.28,1-.45,1.44a1.86,1.86,0,0,1-.58.78,1.57,1.57,0,0,1-1.09.35,1.78,1.78,0,0,1-.91-.21,1.45,1.45,0,0,1-.57-.58,3.84,3.84,0,0,1-.37-.89l-.25-1-2.44-9.9a5.85,5.85,0,0,1-.23-1.32,1.28,1.28,0,0,1,.41-1,1.34,1.34,0,0,1,1-.39,1.11,1.11,0,0,1,1.09.52,5.79,5.79,0,0,1,.49,1.51l1.93,8.59,2.16-8a12,12,0,0,1,.43-1.41A2.09,2.09,0,0,1,62,15.4a1.79,1.79,0,0,1,1.18-.35,1.74,1.74,0,0,1,1.17.36,2,2,0,0,1,.57.8c.11.29.25.76.43,1.43l2.18,8,1.93-8.59a8.16,8.16,0,0,1,.27-1,1.6,1.6,0,0,1,.43-.68,1.2,1.2,0,0,1,.88-.3,1.41,1.41,0,0,1,1,.38,1.29,1.29,0,0,1,.41,1,6.14,6.14,0,0,1-.22,1.32l-2.45,9.9q-.26,1-.42,1.47a1.89,1.89,0,0,1-.56.82,1.94,1.94,0,0,1-2.21,0,1.73,1.73,0,0,1-.57-.77C65.93,28.87,65.78,28.38,65.59,27.69Z"/><path class="a" d="M84.14,17.6H77.43v3.61h6.18a1.51,1.51,0,0,1,1,.3,1.17,1.17,0,0,1,0,1.63,1.43,1.43,0,0,1-1,.32H77.43v4.18h6.94a1.51,1.51,0,0,1,1.06.33,1.1,1.1,0,0,1,.36.87,1.07,1.07,0,0,1-.36.84,1.51,1.51,0,0,1-1.06.33h-8.1a1.91,1.91,0,0,1-1.4-.43,2,2,0,0,1-.42-1.4V17.12a2.42,2.42,0,0,1,.19-1,1.15,1.15,0,0,1,.59-.6,2.62,2.62,0,0,1,1-.18h7.87a1.53,1.53,0,0,1,1.06.31,1.17,1.17,0,0,1,0,1.67A1.53,1.53,0,0,1,84.14,17.6Z"/><path class="a" d="M97.57,28.34l-.7-1.84h-6l-.7,1.88a6.36,6.36,0,0,1-.7,1.49,1.1,1.1,0,0,1-1,.39,1.42,1.42,0,0,1-1-.41,1.26,1.26,0,0,1-.43-.93,2.06,2.06,0,0,1,.1-.63c.07-.21.18-.51.33-.89l3.77-9.55c.1-.28.23-.61.38-1a4.75,4.75,0,0,1,.48-1,2,2,0,0,1,.68-.62,2.11,2.11,0,0,1,1-.23,2.16,2.16,0,0,1,1,.23,2.1,2.1,0,0,1,.68.61,4.38,4.38,0,0,1,.43.8c.11.28.26.66.44,1.14l3.85,9.49a4.77,4.77,0,0,1,.45,1.58,1.26,1.26,0,0,1-.43.93,1.38,1.38,0,0,1-1,.43,1.26,1.26,0,0,1-.6-.13,1.07,1.07,0,0,1-.42-.34,3.08,3.08,0,0,1-.37-.66C97.77,28.83,97.66,28.57,97.57,28.34Zm-5.9-4.08h4.39l-2.22-6.07Z"/><path class="a" d="M104.07,17l3.33,9.87,3.34-9.94c.18-.52.31-.88.4-1.09a1.45,1.45,0,0,1,.43-.55,1.27,1.27,0,0,1,.82-.24,1.38,1.38,0,0,1,.71.19,1.44,1.44,0,0,1,.51.5,1.32,1.32,0,0,1,.18.64,2.1,2.1,0,0,1-.06.48,4.13,4.13,0,0,1-.15.5q-.09.24-.18.51l-3.56,9.61c-.13.37-.25.72-.38,1.05a5,5,0,0,1-.44.87,2,2,0,0,1-.67.62,2.29,2.29,0,0,1-2,0,1.82,1.82,0,0,1-.67-.62,4.83,4.83,0,0,1-.45-.88c-.12-.32-.25-.67-.38-1L101.31,18q-.09-.27-.18-.51a4,4,0,0,1-.17-.55,2.41,2.41,0,0,1-.06-.49,1.32,1.32,0,0,1,.41-.93,1.38,1.38,0,0,1,1-.42,1.21,1.21,0,0,1,1.08.46A6.22,6.22,0,0,1,104.07,17Z"/><path class="a" d="M119,16.85V27.56h6a1.61,1.61,0,0,1,1.11.35,1.15,1.15,0,0,1,.39.89,1.11,1.11,0,0,1-.38.87A1.63,1.63,0,0,1,125,30H117.8A1.56,1.56,0,0,1,116,28.18V16.85a2,2,0,0,1,.41-1.35,1.37,1.37,0,0,1,1.07-.45,1.45,1.45,0,0,1,1.09.44A2,2,0,0,1,119,16.85Z"/><path class="a" d="M129.14,28.44V23.78l-3.59-5.57a9.75,9.75,0,0,1-.67-1.18,1.79,1.79,0,0,1-.2-.73,1.15,1.15,0,0,1,.4-.88,1.36,1.36,0,0,1,1-.37,1.19,1.19,0,0,1,.93.34,10.35,10.35,0,0,1,.94,1.38l2.75,4.47,2.78-4.47.42-.69a5.08,5.08,0,0,1,.38-.53,1.45,1.45,0,0,1,.46-.37,1.25,1.25,0,0,1,.61-.13,1.31,1.31,0,0,1,.94.36,1.16,1.16,0,0,1,.37.85,1.72,1.72,0,0,1-.19.78,8,8,0,0,1-.65,1.09l-3.68,5.65v4.66a2,2,0,0,1-.42,1.37,1.41,1.41,0,0,1-1.08.45,1.37,1.37,0,0,1-1.07-.45A2,2,0,0,1,129.14,28.44Z"/><rect class="a" x="38.66" y="38.3" width="25.59" height="25.59" rx="3.19"/><rect class="b" x="9.05" y="8.86" width="38.54" height="38.54" rx="3.19"/><rect class="c" x="8.69" y="8.75" width="38.54" height="38.54" rx="3.19"/><rect class="c" x="37.96" y="37.77" width="25.59" height="25.59" rx="3.19"/><rect class="d" x="43.62" y="50.01" width="12.88" height="1.64" rx="0.82"/><path class="d" d="M50.51,56.93h0a.82.82,0,0,1,.05-1.16l4.67-4.34a.83.83,0,0,0,0-1.2l-4.67-4.34a.82.82,0,0,1-.05-1.16h0a.82.82,0,0,1,1.16,0l6,5.54a.82.82,0,0,1,0,1.2l-6,5.54A.82.82,0,0,1,50.51,56.93Z"/><rect class="a" x="19.16" y="16.84" width="2.79" height="21.97" rx="1.4" transform="translate(-8.58 9.17) rotate(-20.92)"/><path class="a" d="M22.71,36.3l4.4-11a1.4,1.4,0,0,1,1.82-.77h0a1.4,1.4,0,0,1,.78,1.82l-4.41,11a1.4,1.4,0,0,1-2.6,0h0A1.43,1.43,0,0,1,22.71,36.3Z"/><rect class="a" x="27.93" y="17.15" width="2.79" height="21.97" rx="1.4" transform="translate(-8.11 12.32) rotate(-20.92)"/><path class="a" d="M31.47,36.61l4.4-11a1.4,1.4,0,0,1,1.82-.78h0a1.4,1.4,0,0,1,.78,1.82l-4.41,11a1.4,1.4,0,0,1-2.6,0h0A1.43,1.43,0,0,1,31.47,36.61Z"/></svg>